<svg xmlns="http://www.w3.org/2000/svg" viewBox="0 0 500 100" width="500" height="100">
  <defs>
    <linearGradient id="beanGrad" x1="0%" y1="0%" x2="100%" y2="100%">
      <stop offset="0%" style="stop-color:#FB923C"/>
      <stop offset="50%" style="stop-color:#F97316"/>
      <stop offset="100%" style="stop-color:#EA580C"/>
    </linearGradient>
    <linearGradient id="brandGrad" x1="0%" y1="0%" x2="100%" y2="0%">
      <stop offset="0%" style="stop-color:#F8FAFC"/>
      <stop offset="100%" style="stop-color:#94A3B8"/>
    </linearGradient>
    <linearGradient id="capGrad" x1="0%" y1="0%" x2="100%" y2="100%">
      <stop offset="0%" style="stop-color:#F97316"/>
      <stop offset="100%" style="stop-color:#C2410C"/>
    </linearGradient>
    <filter id="shadow">
      <feDropShadow dx="0" dy="1.5" stdDeviation="2" flood-color="#7C2D12" flood-opacity="0.25"/>
    </filter>
  </defs>

  <path d="M25,16 C43,16 58,32 58,50 C58,68 43,84 25,84 C7,84 -8,68 -8,50 C-8,32 7,16 25,16 Z"
        fill="url(#beanGrad)" filter="url(#shadow)"/>
  <path d="M-4,46 Q25,60 54,46" fill="none" stroke="#C2410C" stroke-width="1" opacity="0.18" stroke-linecap="round"/>

  <ellipse cx="16" cy="43" rx="4.5" ry="5" fill="#FFFFFF"/>
  <circle cx="17" cy="44.5" r="2.2" fill="#7C2D12"/>
  <ellipse cx="34" cy="43" rx="4.5" ry="5" fill="#FFFFFF"/>
  <circle cx="35" cy="44.5" r="2.2" fill="#7C2D12"/>

  <g transform="translate(14,8) rotate(-6) scale(0.55)">
    <path d="M-4,4 L18,-12 L38,4 L30,7 L14,-7 L-2,7Z" fill="url(#capGrad)"/>
    <rect x="-4" y="4" width="4" height="9" rx="1.5" fill="#9A3412"/>
    <line x1="-4" y1="11" x2="-14" y2="16" stroke="#F97316" stroke-width="1.8" stroke-linecap="round"/>
    <circle cx="-15" cy="17.5" r="2.5" fill="#F97316"/>
  </g>

  <text x="68" y="46" font-family="'Inter', system-ui, sans-serif" font-size="26" font-weight="800" fill="url(#brandGrad)" letter-spacing="-0.5">智学堂</text>
  <text x="68" y="68" font-family="'Inter', system-ui, sans-serif" font-size="10" font-weight="600" fill="#64748B" letter-spacing="3">ZHI  XUE  TANG</text>
</svg>
