<svg xmlns="http://www.w3.org/2000/svg" width="1440" height="1100" viewBox="0 0 1440 1100" font-family="PingFang SC, Microsoft YaHei, Helvetica Neue, Arial, sans-serif">
  <defs>
    <marker id="dcdArr" viewBox="0 0 10 10" refX="9" refY="5" markerWidth="7" markerHeight="7" orient="auto-start-reverse">
      <path d="M0,0 L10,5 L0,10 z" fill="#5B7DA6"/>
    </marker>
    <g id="dcdPm2">
      <rect x="0" y="0" width="34" height="30" rx="3" fill="#FFFFFF" stroke="#5B7DA6" stroke-width="1.3"/>
      <line x1="5" y1="9" x2="29" y2="9" stroke="#A9BDD1" stroke-width="1"/>
      <line x1="5" y1="17" x2="29" y2="17" stroke="#A9BDD1" stroke-width="1"/>
      <line x1="5" y1="25" x2="29" y2="25" stroke="#A9BDD1" stroke-width="1"/>
      <circle cx="27" cy="5" r="2.2" fill="#52C41A"/>
    </g>
  </defs>

  <rect width="1440" height="1100" fill="#FAFBFC"/>

  <!-- Header -->
  <rect x="0" y="0" width="1440" height="56" fill="#1F3864"/>
  <text x="40" y="30" font-size="21" font-weight="600" fill="#FFFFFF">deploy-console · 发布部署体系图（按环境组织：console 手动发布 / 应用走流水线）</text>
  <text x="40" y="47" font-size="12" fill="#B9CBE3">Classic Deployment Topology · local / dev / prod 三环境 · 2026-10-09 修订</text>
  <text x="1400" y="47" font-size="11" fill="#8FA8C8" text-anchor="end">console 自发布流水线 tpl-deploy-console-dev 已禁用（改手动脚本）</text>

  <!-- ===== 总纲 ===== -->
  <rect x="40" y="68" width="1360" height="64" rx="4" fill="#F2F7FC" stroke="#7EA6DB" stroke-width="1.2"/>
  <rect x="40" y="68" width="1360" height="24" fill="#2E5C8A"/>
  <text x="52" y="85" font-size="11.5" font-weight="600" fill="#FFFFFF">发布分布总纲</text>
  <g font-size="11" fill="#374151">
    <rect x="56" y="98" width="432" height="24" rx="3" fill="#FFF8E6" stroke="#E0B050"/>
    <text x="70" y="114"><tspan font-weight="600" fill="#8A6100">deploy-console 自己</tspan>：一律<tspan font-weight="600">手动脚本发布</tspan>（publish-deploy-console.sh），不走流水线</text>
    <rect x="504" y="98" width="432" height="24" rx="3" fill="#FFFFFF" stroke="#B4C6E7"/>
    <text x="518" y="114"><tspan font-weight="600" fill="#2E5C8A">应用与服务</tspan>：一律<tspan font-weight="600">走 dev 上的 console 流水线</tspan>（local / dev / prod 同链）</text>
    <rect x="952" y="98" width="432" height="24" rx="3" fill="#F7F4FC" stroke="#C4B0DF"/>
    <text x="966" y="114"><tspan font-weight="600" fill="#5B3F8A">prod</tspan>：console ✗ 不部署；应用由 dev 上的 console 跨 VPC 公网下发</text>
  </g>

  <!-- ===== 泳道 1 · local ===== -->
  <rect x="40" y="144" width="1360" height="202" rx="4" fill="#FFFCF2" stroke="#D9B45B" stroke-width="1.2"/>
  <rect x="40" y="144" width="1360" height="24" fill="#8A6100"/>
  <text x="52" y="161" font-size="11.5" font-weight="600" fill="#FFFFFF">环境 · local（本机 macOS）</text>
  <text x="1384" y="161" font-size="10.5" fill="#F0E0C0" text-anchor="end">host=127.0.0.1（orchestrator 托管）· 运行目录 ~/web_system_release</text>

  <text x="56" y="188" font-size="11" font-weight="600" fill="#8A6100">A · deploy-console → 手动脚本发布（publish-deploy-console.sh）</text>
  <g>
    <rect x="56" y="196" width="205" height="56" rx="3" fill="#FFFFFF" stroke="#E0C888"/>
    <text x="158" y="216" font-size="11.5" font-weight="600" fill="#1F2937" text-anchor="middle">1 · 工作区构建</text>
    <text x="158" y="234" font-size="10.5" fill="#5B6673" text-anchor="middle">nest build + vite build</text>
    <rect x="279" y="196" width="205" height="56" rx="3" fill="#FFFFFF" stroke="#E0C888"/>
    <text x="381" y="216" font-size="11.5" font-weight="600" fill="#1F2937" text-anchor="middle">2 · 复制 dist</text>
    <text x="381" y="234" font-size="10.5" fill="#5B6673" text-anchor="middle">→ ~/web_system_release</text>
    <rect x="502" y="196" width="205" height="56" rx="3" fill="#FFFFFF" stroke="#E0C888"/>
    <text x="604" y="216" font-size="11.5" font-weight="600" fill="#1F2937" text-anchor="middle">3 · 干净 env 启停</text>
    <text x="604" y="234" font-size="10.5" fill="#5B6673" text-anchor="middle">env -i · 禁 --update-env</text>
    <rect x="725" y="196" width="205" height="56" rx="3" fill="#FFFFFF" stroke="#E0C888"/>
    <text x="827" y="216" font-size="11.5" font-weight="600" fill="#1F2937" text-anchor="middle">4 · 6200 端口一致性</text>
    <text x="827" y="234" font-size="10.5" fill="#5B6673" text-anchor="middle">监听者 == pm2 pid</text>
    <rect x="948" y="196" width="205" height="56" rx="3" fill="#FFFFFF" stroke="#E0C888"/>
    <text x="1050" y="216" font-size="11.5" font-weight="600" fill="#1F2937" text-anchor="middle">5 · 探活 + 崩溃检测</text>
    <text x="1050" y="234" font-size="10.5" fill="#5B6673" text-anchor="middle">/console/ 200 · restarts</text>
    <rect x="1171" y="196" width="205" height="56" rx="3" fill="#FFFFFF" stroke="#E0C888"/>
    <text x="1273" y="216" font-size="11.5" font-weight="600" fill="#1F2937" text-anchor="middle">6 · pm2 save</text>
    <text x="1273" y="234" font-size="10.5" fill="#5B6673" text-anchor="middle">固化 console 域进程表</text>
  </g>
  <g stroke="#8A6100" stroke-width="1.2" fill="none">
    <path d="M261,224 L275,224" marker-end="url(#dcdArr)"/><path d="M484,224 L498,224" marker-end="url(#dcdArr)"/>
    <path d="M707,224 L721,224" marker-end="url(#dcdArr)"/><path d="M930,224 L944,224" marker-end="url(#dcdArr)"/>
    <path d="M1153,224 L1167,224" marker-end="url(#dcdArr)"/>
  </g>

  <text x="56" y="276" font-size="11" font-weight="600" fill="#2E5C8A">B · 应用与服务 → 走流水线（dev 上的 console 编排，落到本机）</text>
  <g>
    <rect x="56" y="284" width="205" height="56" rx="3" fill="#FFFFFF" stroke="#B4C6E7"/>
    <text x="158" y="304" font-size="11.5" font-weight="600" fill="#1F2937" text-anchor="middle">1 · 触发 env=local</text>
    <text x="158" y="322" font-size="10.5" fill="#5B6673" text-anchor="middle">REST / MCP / Hook</text>
    <rect x="279" y="284" width="205" height="56" rx="3" fill="#F2F7FC" stroke="#B4C6E7"/>
    <text x="381" y="304" font-size="11.5" font-weight="600" fill="#1F2937" text-anchor="middle">2 · 步骤①拉取代码</text>
    <text x="381" y="322" font-size="10.5" fill="#5B6673" text-anchor="middle">平台托管（managed=1）</text>
    <rect x="502" y="284" width="205" height="56" rx="3" fill="#F2F7FC" stroke="#B4C6E7"/>
    <text x="604" y="304" font-size="11.5" font-weight="600" fill="#1F2937" text-anchor="middle">3 · 步骤②构建</text>
    <text x="604" y="322" font-size="10.5" fill="#5B6673" text-anchor="middle">平台托管（managed=1）</text>
    <rect x="725" y="284" width="205" height="56" rx="3" fill="#FFF8E6" stroke="#E0B050"/>
    <text x="827" y="304" font-size="11.5" font-weight="600" fill="#8A6100" text-anchor="middle">4 · 步骤③审批挂起</text>
    <text x="827" y="322" font-size="10.5" fill="#5B6673" text-anchor="middle">approve 后继续</text>
    <rect x="948" y="284" width="205" height="56" rx="3" fill="#FFFFFF" stroke="#B4C6E7"/>
    <text x="1050" y="304" font-size="11.5" font-weight="600" fill="#1F2937" text-anchor="middle">5 · 步骤④local 动作串</text>
    <text x="1050" y="322" font-size="10.5" fill="#5B6673" text-anchor="middle">write-version→restart→verify</text>
    <rect x="1171" y="284" width="205" height="56" rx="3" fill="#FFFFFF" stroke="#B4C6E7"/>
    <text x="1273" y="304" font-size="11.5" font-weight="600" fill="#1F2937" text-anchor="middle">6 · 本机应用域生效</text>
    <text x="1273" y="322" font-size="10.5" fill="#5B6673" text-anchor="middle">ecosystem.apps.cjs（11）</text>
  </g>
  <g stroke="#5B7DA6" stroke-width="1.2" fill="none">
    <path d="M261,312 L275,312" marker-end="url(#dcdArr)"/><path d="M484,312 L498,312" marker-end="url(#dcdArr)"/>
    <path d="M707,312 L721,312" marker-end="url(#dcdArr)"/><path d="M930,312 L944,312" marker-end="url(#dcdArr)"/>
    <path d="M1153,312 L1167,312" marker-end="url(#dcdArr)"/>
  </g>

  <!-- ===== 泳道 2 · dev ===== -->
  <rect x="40" y="358" width="1360" height="202" rx="4" fill="#F2F7FC" stroke="#7EA6DB" stroke-width="1.2"/>
  <rect x="40" y="358" width="1360" height="24" fill="#2E5C8A"/>
  <text x="52" y="375" font-size="11.5" font-weight="600" fill="#FFFFFF">环境 · dev（VPC-A · deploy-console 唯一运行环境 :6200）</text>
  <text x="1384" y="375" font-size="10.5" fill="#CFE0F5" text-anchor="end">运行目录 /data/web_system · pm2 短名</text>

  <text x="56" y="402" font-size="11" font-weight="600" fill="#8A6100">A · deploy-console → 手动脚本发布（publish-deploy-console.sh --env dev）</text>
  <g>
    <rect x="56" y="410" width="205" height="56" rx="3" fill="#FFFFFF" stroke="#E0C888"/>
    <text x="158" y="430" font-size="11.5" font-weight="600" fill="#1F2937" text-anchor="middle">1 · 工作区构建</text>
    <text x="158" y="448" font-size="10.5" fill="#5B6673" text-anchor="middle">后端 + 前端 dist</text>
    <rect x="279" y="410" width="205" height="56" rx="3" fill="#FFFFFF" stroke="#E0C888"/>
    <text x="381" y="430" font-size="11.5" font-weight="600" fill="#1F2937" text-anchor="middle">2 · 打包 + 上传</text>
    <text x="381" y="448" font-size="10.5" fill="#5B6673" text-anchor="middle">dist.tgz → scp /tmp</text>
    <rect x="502" y="410" width="205" height="56" rx="3" fill="#FFF8E6" stroke="#E0B050"/>
    <text x="604" y="430" font-size="11.5" font-weight="600" fill="#8A6100" text-anchor="middle">3 · 远端前置校验</text>
    <text x="604" y="448" font-size="10.5" fill="#5B6673" text-anchor="middle">JWT_SECRET + 模板名唯一</text>
    <rect x="725" y="410" width="205" height="56" rx="3" fill="#FFFFFF" stroke="#E0C888"/>
    <text x="827" y="430" font-size="11.5" font-weight="600" fill="#1F2937" text-anchor="middle">4 · 备份并替换</text>
    <text x="827" y="448" font-size="10.5" fill="#5B6673" text-anchor="middle">dist.bak-TS（留最近 2 份）</text>
    <rect x="948" y="410" width="205" height="56" rx="3" fill="#FFFFFF" stroke="#E0C888"/>
    <text x="1050" y="430" font-size="11.5" font-weight="600" fill="#1F2937" text-anchor="middle">5 · pm2 restart console</text>
    <text x="1050" y="448" font-size="10.5" fill="#5B6673" text-anchor="middle">只动 console 进程，不碰应用</text>
    <rect x="1171" y="410" width="205" height="56" rx="3" fill="#FFFFFF" stroke="#E0C888"/>
    <text x="1273" y="430" font-size="11.5" font-weight="600" fill="#1F2937" text-anchor="middle">6 · 探活 / 失败回滚</text>
    <text x="1273" y="448" font-size="10.5" fill="#5B6673" text-anchor="middle">回滚 dist.bak 并重启旧版</text>
  </g>
  <g stroke="#8A6100" stroke-width="1.2" fill="none">
    <path d="M261,438 L275,438" marker-end="url(#dcdArr)"/><path d="M484,438 L498,438" marker-end="url(#dcdArr)"/>
    <path d="M707,438 L721,438" marker-end="url(#dcdArr)"/><path d="M930,438 L944,438" marker-end="url(#dcdArr)"/>
    <path d="M1153,438 L1167,438" marker-end="url(#dcdArr)"/>
  </g>

  <text x="56" y="490" font-size="11" font-weight="600" fill="#2E5C8A">B · 应用与服务 → 走流水线（dev 上的 console 自己执行）</text>
  <g>
    <rect x="56" y="498" width="205" height="56" rx="3" fill="#FFFFFF" stroke="#B4C6E7"/>
    <text x="158" y="518" font-size="11.5" font-weight="600" fill="#1F2937" text-anchor="middle">1 · 触发 env=dev</text>
    <text x="158" y="536" font-size="10.5" fill="#5B6673" text-anchor="middle">SPA / REST / MCP / Hook</text>
    <rect x="279" y="498" width="205" height="56" rx="3" fill="#F2F7FC" stroke="#B4C6E7"/>
    <text x="381" y="518" font-size="11.5" font-weight="600" fill="#1F2937" text-anchor="middle">2 · 拉取 + 构建</text>
    <text x="381" y="536" font-size="10.5" fill="#5B6673" text-anchor="middle">构建在 dev 机执行</text>
    <rect x="502" y="498" width="205" height="56" rx="3" fill="#FFF8E6" stroke="#E0B050"/>
    <text x="604" y="518" font-size="11.5" font-weight="600" fill="#8A6100" text-anchor="middle">3 · 审批挂起</text>
    <text x="604" y="536" font-size="10.5" fill="#5B6673" text-anchor="middle">awaiting-approval</text>
    <rect x="725" y="498" width="205" height="56" rx="3" fill="#FFFFFF" stroke="#B4C6E7"/>
    <text x="827" y="518" font-size="11.5" font-weight="600" fill="#1F2937" text-anchor="middle">4 · dev 动作串</text>
    <text x="827" y="536" font-size="10.5" fill="#5B6673" text-anchor="middle">write-version→sync→restart</text>
    <rect x="948" y="498" width="205" height="56" rx="3" fill="#FFFFFF" stroke="#B4C6E7"/>
    <text x="1050" y="518" font-size="11.5" font-weight="600" fill="#1F2937" text-anchor="middle">5 · verify</text>
    <text x="1050" y="536" font-size="10.5" fill="#5B6673" text-anchor="middle">探活 + manifest 断言</text>
    <rect x="1171" y="498" width="205" height="56" rx="3" fill="#FFFFFF" stroke="#B4C6E7"/>
    <text x="1273" y="518" font-size="11.5" font-weight="600" fill="#1F2937" text-anchor="middle">6 · 生效</text>
    <text x="1273" y="536" font-size="10.5" fill="#5B6673" text-anchor="middle">verify 通过后切指针</text>
  </g>
  <g stroke="#5B7DA6" stroke-width="1.2" fill="none">
    <path d="M261,526 L275,526" marker-end="url(#dcdArr)"/><path d="M484,526 L498,526" marker-end="url(#dcdArr)"/>
    <path d="M707,526 L721,526" marker-end="url(#dcdArr)"/><path d="M930,526 L944,526" marker-end="url(#dcdArr)"/>
    <path d="M1153,526 L1167,526" marker-end="url(#dcdArr)"/>
  </g>

  <!-- ===== 泳道 3 · prod ===== -->
  <rect x="40" y="572" width="1360" height="202" rx="4" fill="#F4F1FA" stroke="#9B7FC4" stroke-width="1.2"/>
  <rect x="40" y="572" width="1360" height="24" fill="#5B3F8A"/>
  <text x="52" y="589" font-size="11.5" font-weight="600" fill="#FFFFFF">环境 · prod（VPC-B · 被管对象）</text>
  <text x="1384" y="589" font-size="10.5" fill="#DCCDF0" text-anchor="end">console ✗ 不部署（synchronize:true 会污染 prod 库）</text>

  <text x="56" y="616" font-size="11" font-weight="600" fill="#C0504D">A · deploy-console → 不部署</text>
  <rect x="56" y="624" width="1328" height="42" rx="3" fill="#FFF6F6" stroke="#D89A9A"/>
  <text x="70" y="642" font-size="11" font-weight="600" fill="#C0504D">prod 不安装 console：它是运维平台（synchronize:true 自动建表）且无需常驻；prod 的发布一律由 dev 上的 console 远程编排，prod 只被管。</text>
  <text x="70" y="658" font-size="11" fill="#5B6673">若将来需要在 prod 侧常驻运维能力，应拆独立 runner（已知技术债），而不是把 console 搬过去。</text>

  <text x="56" y="686" font-size="11" font-weight="600" fill="#5B3F8A">B · 应用与服务 → 走流水线（由 dev 上的 console 跨 VPC 公网下发执行）</text>
  <g>
    <rect x="56" y="694" width="205" height="56" rx="3" fill="#FFFFFF" stroke="#C4B0DF"/>
    <text x="158" y="714" font-size="11.5" font-weight="600" fill="#1F2937" text-anchor="middle">1 · 触发 env=prod</text>
    <text x="158" y="732" font-size="10.5" fill="#5B6673" text-anchor="middle">同流水线，选 prod 任务串</text>
    <rect x="279" y="694" width="205" height="56" rx="3" fill="#FFFFFF" stroke="#C4B0DF"/>
    <text x="381" y="714" font-size="11.5" font-weight="600" fill="#1F2937" text-anchor="middle">2 · 审批（更严）</text>
    <text x="381" y="732" font-size="10.5" fill="#5B6673" text-anchor="middle">审批权限 + 显式 approve</text>
    <rect x="502" y="694" width="205" height="56" rx="3" fill="#FFFFFF" stroke="#C4B0DF"/>
    <text x="604" y="714" font-size="11.5" font-weight="600" fill="#1F2937" text-anchor="middle">3 · write-version</text>
    <text x="604" y="732" font-size="10.5" fill="#5B6673" text-anchor="middle">严格写云数据库（失败 503）</text>
    <rect x="725" y="694" width="205" height="56" rx="3" fill="#FFFFFF" stroke="#C4B0DF"/>
    <text x="827" y="714" font-size="11.5" font-weight="600" fill="#1F2937" text-anchor="middle">4 · sync（跨 VPC）</text>
    <text x="827" y="732" font-size="10.5" fill="#5B6673" text-anchor="middle">公网 ssh + workspace 包重建</text>
    <rect x="948" y="694" width="205" height="56" rx="3" fill="#FFFFFF" stroke="#C4B0DF"/>
    <text x="1050" y="714" font-size="11.5" font-weight="600" fill="#1F2937" text-anchor="middle">5 · restart（远端）</text>
    <text x="1050" y="732" font-size="10.5" fill="#5B6673" text-anchor="middle">干净 env + 依赖校验 fail-fast</text>
    <rect x="1171" y="694" width="205" height="56" rx="3" fill="#FFFFFF" stroke="#C4B0DF"/>
    <text x="1273" y="714" font-size="11.5" font-weight="600" fill="#1F2937" text-anchor="middle">6 · verify</text>
    <text x="1273" y="732" font-size="10.5" fill="#5B6673" text-anchor="middle">失败 rollback_on_failure</text>
  </g>
  <g stroke="#7A5FA8" stroke-width="1.2" fill="none">
    <path d="M261,722 L275,722" marker-end="url(#dcdArr)"/><path d="M484,722 L498,722" marker-end="url(#dcdArr)"/>
    <path d="M707,722 L721,722" marker-end="url(#dcdArr)"/><path d="M930,722 L944,722" marker-end="url(#dcdArr)"/>
    <path d="M1153,722 L1167,722" marker-end="url(#dcdArr)"/>
  </g>

  <!-- ===== pm2 管理层（双域） ===== -->
  <rect x="40" y="786" width="1360" height="176" rx="4" fill="#F1F7EE" stroke="#7FB069" stroke-width="1.2"/>
  <rect x="40" y="786" width="1360" height="26" fill="#3F6B2E"/>
  <text x="52" y="805" font-size="11.5" font-weight="600" fill="#FFFFFF">pm2 管理层 · 拆成两个域（console 域 / 应用域），发布互不影响</text>

  <g font-size="10.5" fill="#5B6673">
    <rect x="56" y="822" width="320" height="124" rx="3" fill="#FFFFFF" stroke="#A9C99A"/>
    <use href="#dcdPm2" x="66" y="830"/>
    <text x="108" y="844" font-size="12.5" font-weight="600" fill="#1F2937">应用域（11 个）</text>
    <text x="66" y="876">本机：ecosystem.apps.cjs → web-gateway /</text>
    <text x="66" y="892">web-auth(6101) / web-user / web-ai / web-system /</text>
    <text x="66" y="908">web-todo / web-mcp-gateway / web-content-hub /</text>
    <text x="66" y="924">web-upload / web-ai-agent / web-knowledge(6011)</text>
    <text x="66" y="940" fill="#3F8F5B">发布只操作本域，console 重启不牵连应用</text>

    <rect x="392" y="822" width="320" height="124" rx="3" fill="#FFF8E6" stroke="#E0B050"/>
    <use href="#dcdPm2" x="402" y="830"/>
    <text x="444" y="844" font-size="12.5" font-weight="600" fill="#8A6100">console 域（1 个 :6200）</text>
    <text x="402" y="876">本机：ecosystem.console.cjs → web-deploy-console</text>
    <text x="402" y="892">启停/自发布只操作本域（publish-deploy-console.sh）</text>
    <text x="402" y="908">6200 端口一致性铁律：监听者 == pm2 pid</text>
    <text x="402" y="924">干净 env 启动：env -i PATH/HOME</text>
    <text x="402" y="940" fill="#8A6100">可选 PM2_HOME=~/.pm2-console 做进程表级隔离</text>

    <rect x="728" y="822" width="320" height="124" rx="3" fill="#FFFFFF" stroke="#A9C99A"/>
    <use href="#dcdPm2" x="738" y="830"/>
    <text x="780" y="844" font-size="12.5" font-weight="600" fill="#1F2937">远端 dev / prod（单 daemon + 域约定）</text>
    <text x="738" y="876">dev：短名 12 个（含 deploy-console）</text>
    <text x="738" y="892">prod：短名 10 个（console ✗ 不部署）</text>
    <text x="738" y="908">cwd = servers/&lt;svc&gt; → .env 取该目录</text>
    <text x="738" y="924">发布脚本按「服务名」操作，天然只动目标服务</text>
    <text x="738" y="940" fill="#C0504D">⚠ console 自发布已改手动，不再触碰流水线进程</text>

    <rect x="1064" y="822" width="320" height="124" rx="3" fill="#FFF8E6" stroke="#E0B050"/>
    <text x="1078" y="844" font-size="12.5" font-weight="600" fill="#8A6100">启动铁律（三环境通用）</text>
    <text x="1078" y="876">① 服务 .env 是唯一配置源，pm2 只注入</text>
    <text x="1078" y="892">PATH / HOME / PORT（PORT 写死防漂移）</text>
    <text x="1078" y="908">② 禁 --update-env（会话变量固化进 pm2_env）</text>
    <text x="1078" y="924">③ 主密钥只注入 CONFIG_MASTER_KEY_FILE</text>
    <text x="1078" y="940">路径，不注入值（防 ps e / dump 泄露）</text>
  </g>

  <!-- ===== 风险条 ===== -->
  <rect x="40" y="974" width="1360" height="100" rx="4" fill="#FFF8F8" stroke="#C0504D" stroke-width="1.2"/>
  <rect x="40" y="974" width="1360" height="24" fill="#C0504D"/>
  <text x="52" y="991" font-size="11.5" font-weight="600" fill="#FFFFFF">关键约束与当前状态（2026-10-09 修订后）</text>
  <g font-size="11" fill="#374151">
    <text x="56" y="1016"><tspan font-weight="600" fill="#C0504D">发布分布：</tspan>deploy-console 一律手动脚本发布（local 直发 / dev 用 --env dev）；应用与服务一律走 dev 上的 console 流水线；prod 不部署 console。原自发布流水线 tpl-deploy-console-dev 已禁用（enabled=0，改动前已备份）。</text>
    <text x="56" y="1036"><tspan font-weight="600" fill="#C0504D">为何 console 不走流水线：</tspan>它是发布工具自身，流水线内同步 restart 会 kill 掉正在跑流水线的进程（ECONNRESET、状态丢失）；手动脚本用「备份 dist → 替换 → 重启 → 探活 → 失败回滚」替代，规避自杀问题。</text>
    <text x="56" y="1056"><tspan font-weight="600" fill="#C0504D">已修偏差：</tspan>prod 注册表端口已统一 6000 系（并补登记 upload-service=6008 / ai-agent=6010）；dev 已落盘 .env.generated（ai-service / ai-agent / gateway，0600）并重启生效。<tspan font-weight="600" fill="#C0504D">待办：</tspan>prod 运行目录统一为 /data/web_system（迁移需停机窗口）。</text>
  </g>

  <!-- ===== 图例 ===== -->
  <rect x="40" y="1086" width="1360" height="14" rx="3" fill="#FFFFFF" stroke="#D5DCE4"/>
  <text x="1384" y="1096" font-size="10" fill="#8A8A99" text-anchor="end">图中不含服务器公网地址与密钥明文（仓库 PUBLIC）· 事实源：dev 库 deploy_pipelines 实测 + scripts/pipeline/* + scripts/publish-deploy-console.sh</text>
</svg>
