<svg viewBox="0 0 680 460" width="100%" role="img" xmlns="http://www.w3.org/2000/svg">
  <title>科豆AI — 极简扁平Logo（最终版）</title>
  <desc>全变体居中校正：主Logo视觉居中 + App图标精确几何居中</desc>

  <rect x="145" y="75" width="210" height="110" rx="55" fill="#F97316"/>

  <path d="M 250 93
           C 272 93, 284 109, 284 135
           C 284 165, 266 177, 250 177
           C 232 177, 216 163, 216 135
           C 216 107, 232 93, 250 93 Z" fill="white"/>

  <circle cx="250" cy="135" r="9" fill="#F97316"/>
  <circle cx="250" cy="133" r="3.5" fill="#FDE68A"/>

  <path d="M 250 93 Q 250 85, 250 82" fill="none" stroke="white" stroke-width="3.5" stroke-linecap="round"/>
  <circle cx="250" cy="81" r="3.5" fill="white"/>

  <text x="395" y="122" text-anchor="start" font-family="PingFang SC, Microsoft YaHei, Noto Sans SC, sans-serif" font-size="48" font-weight="700" fill="#1C1917" letter-spacing="2">科豆</text>
  <text x="395" y="170" text-anchor="start" font-family="PingFang SC, Microsoft YaHei, Noto Sans SC, sans-serif" font-size="48" font-weight="700" fill="#F97316" letter-spacing="2">AI</text>
  <text x="395" y="200" text-anchor="start" font-family="PingFang SC, Microsoft YaHei, Noto Sans SC, sans-serif" font-size="13" fill="#A8A29E" letter-spacing="3">你的 AI 小伙伴</text>

  <line x1="60" y1="250" x2="620" y2="250" stroke="#E7E5E4" stroke-width="0.5"/>
  <text x="340" y="285" text-anchor="middle" font-family="PingFang SC, Microsoft YaHei, Noto Sans SC, sans-serif" font-size="12" fill="#A8A29E" letter-spacing="2">ICON 变体</text>

  <g transform="translate(150, 370)">
    <rect x="-48" y="-48" width="96" height="96" rx="23" fill="#F97316"/>
    <path d="M 0 -28 C 14 -28, 24 -18, 24 0 C 24 20, 14 28, 0 28 C -14 28, -24 18, -24 0 C -24 -18, -14 -28, 0 -28 Z" fill="white"/>
    <circle cx="0" cy="0" r="8" fill="#F97316"/>
    <circle cx="0" cy="-1" r="3" fill="#FDE68A"/>
  </g>
  <g transform="translate(340, 370)">
    <circle cx="0" cy="0" r="48" fill="#F97316"/>
    <path d="M 0 -28 C 14 -28, 24 -18, 24 0 C 24 20, 14 28, 0 28 C -14 28, -24 18, -24 0 C -24 -18, -14 -28, 0 -28 Z" fill="white"/>
    <circle cx="0" cy="0" r="8" fill="#F97316"/>
    <circle cx="0" cy="-1" r="3" fill="#FDE68A"/>
  </g>
  <g transform="translate(530, 370)">
    <rect x="-48" y="-48" width="96" height="96" rx="23" fill="#1C1917"/>
    <path d="M 0 -28 C 14 -28, 24 -18, 24 0 C 24 20, 14 28, 0 28 C -14 28, -24 18, -24 0 C -24 -18, -14 -28, 0 -28 Z" fill="#F97316"/>
    <circle cx="0" cy="0" r="8" fill="white"/>
    <circle cx="0" cy="-1" r="3" fill="#1C1917"/>
  </g>
  <text x="340" y="450" text-anchor="middle" font-family="PingFang SC, Microsoft YaHei, Noto Sans SC, sans-serif" font-size="11" fill="#A8A29E" letter-spacing="2">小尺寸亦清晰可辨</text>
</svg>