<svg xmlns="http://www.w3.org/2000/svg" width="48" height="48" viewBox="0 0 24 24" fill="none" stroke="#4ECDC4" stroke-width="2" stroke-linecap="round" stroke-linejoin="round" size="48" color="#4ECDC4" class="tabler-icon tabler-icon-sailboat material-svg-icon"><path d="M2 20a2.4 2.4 0 0 0 2 1a2.4 2.4 0 0 0 2 -1a2.4 2.4 0 0 1 2 -1a2.4 2.4 0 0 1 2 1a2.4 2.4 0 0 0 2 1a2.4 2.4 0 0 0 2 -1a2.4 2.4 0 0 1 2 -1a2.4 2.4 0 0 1 2 1a2.4 2.4 0 0 0 2 1a2.4 2.4 0 0 0 2 -1"></path><path d="M4 18l-1 -3h18l-1 3"></path><path d="M11 12h7l-7 -9v9"></path><path d="M8 7l-2 5"></path></svg>